# xmcd
#
# Track frame offsets: 
#        150
#        26873
#        46615
#        65217
#        85862
#        108757
#        129259
#        149317
#        167235
#        189393
#        222299
#
# Disc length: 3295 seconds
#
# Revision: 0
# Processed by: cddbd v1.5.2PL0 Copyright (c) Steve Scherf et al.
# Submitted via: ExactAudioCopyFreeDBPlugin 1.0
#
DISCID=970cdd0b
DTITLE=John Mayall - Tough
DYEAR=2009
DGENRE=Blues
TTITLE0=Nothing to Do With Love
TTITLE1=Just What You're Looking For
TTITLE2=Playing With a Losing Hand
TTITLE3=An Eye For an Eye
TTITLE4=How Far Down
TTITLE5=Train to My Heart
TTITLE6=Slow Train to Nowhere
TTITLE7=Numbers Down
TTITLE8=That Good Old Rockin' Blues
TTITLE9=Tough Times Ahead
TTITLE10=The Sum of Something
EXTD=
EXTT0=
EXTT1=
EXTT2=
EXTT3=
EXTT4=
EXTT5=
EXTT6=
EXTT7=
EXTT8=
EXTT9=
EXTT10=
PLAYORDER=
